<?xml version="1.0" standalone="no"?><!DOCTYPE svg PUBLIC "-//W3C//DTD SVG 1.1//EN" "http://www.w3.org/Graphics/SVG/1.1/DTD/svg11.dtd"><svg t="1637219886334" class="icon" viewBox="0 0 1024 1024" version="1.1" xmlns="http://www.w3.org/2000/svg" p-id="898" xmlns:xlink="http://www.w3.org/1999/xlink" width="48" height="48"><defs><style type="text/css"></style></defs><path d="M704 153.6H332.8c-8.533333 0-21.333333 4.266667-25.6 12.8l-187.733333 324.266667c-4.266667 8.533333-4.266667 21.333333 0 29.866666l187.733333 324.266667c4.266667 8.533333 12.8 12.8 25.6 12.8h375.466667c8.533333 0 21.333333-4.266667 25.6-12.8l187.733333-324.266667c4.266667-8.533333 4.266667-21.333333 0-29.866666l-187.733333-324.266667c-8.533333-8.533333-17.066667-12.8-29.866667-12.8z" fill="#FFFFFF" p-id="899"></path><path d="M704 891.733333H332.8c-21.333333 0-42.666667-12.8-51.2-29.866666l-187.733333-324.266667c-12.8-17.066667-12.8-42.666667 0-59.733333l187.733333-324.266667c12.8-17.066667 29.866667-29.866667 51.2-29.866667h375.466667c21.333333 0 42.666667 12.8 51.2 29.866667l187.733333 324.266667c12.8 17.066667 12.8 42.666667 0 59.733333l-187.733333 324.266667c-12.8 17.066667-34.133333 29.866667-55.466667 29.866666zM332.8 187.733333L149.333333 512l187.733334 320h371.2l183.466666-324.266667-187.733333-320H332.8z" p-id="900"></path><path d="M520.533333 507.733333m-145.066666 0a145.066667 145.066667 0 1 0 290.133333 0 145.066667 145.066667 0 1 0-290.133333 0Z" fill="#FFFFFF" p-id="901"></path><path d="M520.533333 686.933333c-98.133333 0-179.2-81.066667-179.2-179.2 0-98.133333 81.066667-179.2 179.2-179.2s179.2 81.066667 179.2 179.2c-4.266667 98.133333-81.066667 179.2-179.2 179.2z m0-294.4c-64 0-115.2 51.2-115.2 115.2 0 64 51.2 115.2 115.2 115.2s115.2-51.2 115.2-115.2c-4.266667-64-55.466667-115.2-115.2-115.2z" p-id="902"></path></svg>